<svg xmlns="http://www.w3.org/2000/svg" viewBox="0 0 1911.52 408.64"><defs><style>.cls-1{fill:#efefef;}.cls-2{opacity:0.05;}</style></defs><title>clouds</title><g id="exoprt"><g id="wolken"><path class="cls-1" d="M1011.19,355.85C993.67,313.33,940,336.69,940,336.69s-7-52.37-45.87-67.36C825.55,242.9,794,321.63,794,321.63s-29.34-28.7-72.43,4.84c-29,22.54-23.5,82.17,20,82.17L965.83,405C993.67,405,1024,387,1011.19,355.85Z"/><g class="cls-2"><path d="M1011.19,355.85C993.67,313.33,940,336.69,940,336.69s-7-52.37-45.87-67.36c-37.84-14.58-64.39,2.83-80.6,21.38,16.38-14.17,39.9-23.89,71.09-11.87,38.9,15,45.87,67.36,45.87,67.36s53.64-23.36,71.16,19.16c4.92,11.93,3.5,21.92-1.67,29.72C1012,386.74,1018.42,373.38,1011.19,355.85Z"/><path d="M719.23,328.48c-.64.59-1.26,1.2-1.87,1.82l-.3.31c-.61.65-1.2,1.3-1.77,2l-.15.19c-.59.71-1.17,1.45-1.72,2.2,42.37-32,75.78,0,75.78,0A37.86,37.86,0,0,1,794,321.63s-24.82-24.28-62.34-2.07q-2.61,1.56-5.19,3.33h0l-1.49,1-.55.4-1.09.8-1.77,1.34c-.71.56-1.41,1.15-2.08,1.75Z"/></g></g></g></svg>