<svg xmlns="http://www.w3.org/2000/svg" viewBox="0 0 1911.52 408.64"><defs><style>.cls-1{fill:#efefef;}.cls-2{opacity:0.05;}</style></defs><title>a</title><g id="exoprt"><g id="wolken"><path class="cls-1" d="M131.31,366l262.24-4.23c48.39,0,91.7-23.29,81.48-58.81-13.11-45.59-54.79-47.12-54.79-47.12s10.77-56.38-29.83-83.2c-49.83-32.93-90.32,19.39-90.32,19.39S257,149.8,207.39,179.63c-42.92,25.8-36.56,61-36.56,61s-53.53-12.35-89.91,31.77C53.62,305.53,80.46,366,131.31,366Z"/><g class="cls-2"><path d="M475,303c-13.11-45.59-54.79-47.12-54.79-47.12s10.77-56.38-29.83-83.2C370.83,159.72,352.69,160,337.89,165c10.09.23,21.05,3.28,32.52,10.85C411,202.67,400.24,259,400.24,259s41.68,1.53,54.79,47.12c7.81,27.17-15.67,47.17-48.79,55.09C449.18,357.57,484.34,335.36,475,303Z"/><path d="M223.76,172.16h0c33.92.05,63.52,32.08,63.52,32.08s6.13-6.33,12.81-12.19C300.09,192.05,266.11,158.74,223.76,172.16Z"/><path d="M170.83,240.66a99.08,99.08,0,0,0-43.47,1.77h0c13.85-.8,43.48,4.77,43.48,4.77S170.85,243.65,170.83,240.66Z"/></g><path class="cls-1" d="M1742.16,283.66,1452.66,279c-53.41,0-91.77-46.94-80.49-86.16,14.47-50.33,72-36.9,72-36.9s15-68.08,65.4-86.59c58.39-21.43,80.42,43.9,80.42,43.9S1648,56.06,1702.72,89c47.38,28.49,19.51,66.94,19.51,66.94s35.39-24.29,75.55,24.41C1827.91,216.88,1798.28,283.66,1742.16,283.66Z"/><g class="cls-2"><path d="M1797.78,180.34c-40.16-48.7-75.55-24.41-75.55-24.41s27.87-38.45-19.51-66.94C1648,56.06,1590,113.24,1590,113.24s-22-65.33-80.42-43.9c-13.57,5-24.57,13.55-33.4,23.42a76.59,76.59,0,0,1,18.4-9.83C1553,61.5,1575,126.84,1575,126.84s58-57.18,112.73-24.25c47.39,28.48,19.52,66.93,19.52,66.93s35.39-24.29,75.54,24.41c18.46,22.38,14.49,56.1-4.24,78.88C1809.3,252.38,1820.44,207.82,1797.78,180.34Z"/><path d="M1380.27,175.56h0c21.7-12.39,59.52-3.84,59.52-3.84a106.25,106.25,0,0,1,4.37-15.79S1401.31,145.93,1380.27,175.56Z"/></g><path class="cls-1" d="M1011.19,355.85C993.67,313.33,940,336.69,940,336.69s-7-52.37-45.87-67.36C825.55,242.9,794,321.63,794,321.63s-29.34-28.7-72.43,4.84c-29,22.54-23.5,82.17,20,82.17L965.83,405C993.67,405,1024,387,1011.19,355.85Z"/><g class="cls-2"><path d="M1011.19,355.85C993.67,313.33,940,336.69,940,336.69s-7-52.37-45.87-67.36c-37.84-14.58-64.39,2.83-80.6,21.38,16.38-14.17,39.9-23.89,71.09-11.87,38.9,15,45.87,67.36,45.87,67.36s53.64-23.36,71.16,19.16c4.92,11.93,3.5,21.92-1.67,29.72C1012,386.74,1018.42,373.38,1011.19,355.85Z"/><path d="M719.23,328.48c-.64.59-1.26,1.2-1.87,1.82l-.3.31c-.61.65-1.2,1.3-1.77,2l-.15.19c-.59.71-1.17,1.45-1.72,2.2,42.37-32,75.78,0,75.78,0A37.86,37.86,0,0,1,794,321.63s-24.82-24.28-62.34-2.07q-2.61,1.56-5.19,3.33h0l-1.49,1-.55.4-1.09.8-1.77,1.34c-.71.56-1.41,1.15-2.08,1.75Z"/></g></g></g></svg>