<svg xmlns="http://www.w3.org/2000/svg" viewBox="0 0 1911.52 408.64"><defs><style>.cls-1{fill:#efefef;}.cls-2{opacity:0.05;}</style></defs><title>clouds</title><g id="exoprt"><g id="wolken"><path class="cls-1" d="M1742.16,283.66,1452.66,279c-53.41,0-91.77-46.94-80.49-86.16,14.47-50.33,72-36.9,72-36.9s15-68.08,65.4-86.59c58.39-21.43,80.42,43.9,80.42,43.9S1648,56.06,1702.72,89c47.38,28.49,19.51,66.94,19.51,66.94s35.39-24.29,75.55,24.41C1827.91,216.88,1798.28,283.66,1742.16,283.66Z"/><g class="cls-2"><path d="M1797.78,180.34c-40.16-48.7-75.55-24.41-75.55-24.41s27.87-38.45-19.51-66.94C1648,56.06,1590,113.24,1590,113.24s-22-65.33-80.42-43.9c-13.57,5-24.57,13.55-33.4,23.42a76.59,76.59,0,0,1,18.4-9.83C1553,61.5,1575,126.84,1575,126.84s58-57.18,112.73-24.25c47.39,28.48,19.52,66.93,19.52,66.93s35.39-24.29,75.54,24.41c18.46,22.38,14.49,56.1-4.24,78.88C1809.3,252.38,1820.44,207.82,1797.78,180.34Z"/><path d="M1380.27,175.56h0c21.7-12.39,59.52-3.84,59.52-3.84a106.25,106.25,0,0,1,4.37-15.79S1401.31,145.93,1380.27,175.56Z"/></g></g></g></svg>