<svg xmlns="http://www.w3.org/2000/svg" viewBox="0 0 1911.52 408.64"><defs><style>.cls-1{fill:#efefef;}.cls-2{opacity:0.05;}</style></defs><title>clouds</title><g id="exoprt"><g id="wolken"><path class="cls-1" d="M131.31,366l262.24-4.23c48.39,0,91.7-23.29,81.48-58.81-13.11-45.59-54.79-47.12-54.79-47.12s10.77-56.38-29.83-83.2c-49.83-32.93-90.32,19.39-90.32,19.39S257,149.8,207.39,179.63c-42.92,25.8-36.56,61-36.56,61s-53.53-12.35-89.91,31.77C53.62,305.53,80.46,366,131.31,366Z"/><g class="cls-2"><path d="M475,303c-13.11-45.59-54.79-47.12-54.79-47.12s10.77-56.38-29.83-83.2C370.83,159.72,352.69,160,337.89,165c10.09.23,21.05,3.28,32.52,10.85C411,202.67,400.24,259,400.24,259s41.68,1.53,54.79,47.12c7.81,27.17-15.67,47.17-48.79,55.09C449.18,357.57,484.34,335.36,475,303Z"/><path d="M223.76,172.16h0c33.92.05,63.52,32.08,63.52,32.08s6.13-6.33,12.81-12.19C300.09,192.05,266.11,158.74,223.76,172.16Z"/><path d="M170.83,240.66a99.08,99.08,0,0,0-43.47,1.77h0c13.85-.8,43.48,4.77,43.48,4.77S170.85,243.65,170.83,240.66Z"/></g></g></g></svg>