<svg xmlns="http://www.w3.org/2000/svg" xmlns:xlink="http://www.w3.org/1999/xlink" viewBox="0 0 1920 462.24"><defs><style>.cls-1{fill:none;}.cls-2{clip-path:url(#clip-path);}.cls-3{clip-path:url(#clip-path-2);}.cls-4{fill:#7d7d7d;}.cls-5{fill:#929292;}.cls-6{fill:#878787;}.cls-7{clip-path:url(#clip-path-3);}.cls-8{clip-path:url(#clip-path-4);}.cls-9{clip-path:url(#clip-path-5);}.cls-10{clip-path:url(#clip-path-6);}.cls-11{fill:#487c39;}.cls-12{fill:#437335;}.cls-13{fill:#487d3a;}.cls-14{fill:#4b823c;}.cls-15{fill:#457737;}.cls-16,.cls-17{opacity:0.2;}.cls-18{opacity:0.1;}.cls-19{fill:#d1d1d1;}</style><clipPath id="clip-path"><rect class="cls-1" x="-1986.65" y="553.98" width="1920" height="756.93"/></clipPath><clipPath id="clip-path-2"><path class="cls-1" d="M54.1,589.55l-273.57,626.08h674L181,589.55C160.33,542.28,74.75,542.28,54.1,589.55Z"/></clipPath><clipPath id="clip-path-3"><rect class="cls-1" y="553.98" width="1920" height="756.93"/></clipPath><clipPath id="clip-path-4"><path class="cls-1" d="M2040.75,589.55l-273.57,626.08h674L2167.64,589.55C2147,542.28,2061.4,542.28,2040.75,589.55Z"/></clipPath><clipPath id="clip-path-5"><path class="cls-1" d="M120.65,589.55l-273.57,626.08h674L247.54,589.55C226.88,542.28,141.3,542.28,120.65,589.55Z"/></clipPath><clipPath id="clip-path-6"><path class="cls-1" d="M1518.08,138.74C1342.62,212.35,1335.82,21.4,1087.94.62,920.15-13.44,863.15,215,676.9,185.93c-106.44-16.62-156.27-131-316.1-131-114.4,0-164,231.18-360.8,231.18V462.24H1920V286.11C1789.55,286.11,1717.87,54.93,1518.08,138.74Z"/></clipPath></defs><title>a</title><g id="game"><g id="berge2"><g class="cls-2"><g class="cls-3"><rect class="cls-4" x="-219.47" y="443.67" width="723.89" height="773.13"/><path class="cls-5" d="M-100,443.67c.18,4.85.46,9,.68,12.08,5.76,83.19,59.13,139.2,89.07,170.63C33.17,671.92,97.09,739,169.34,723c49.58-11,80.71-56.13,96.14-78.52,30.48-44.21,38-88.41,43.83-122.31s10-58.67,10.24-78.52Z"/><path class="cls-6" d="M295.67,443.67c6.15,37.81,33.53,55.8,36.26,71.73,7.29,42.51-7.21,92.06-.71,103.43,19.11,33.38,42-93,80.83-100.67,29.24-5.8,92.37-74.49,92.37-74.49Z"/><path class="cls-6" d="M504.42,443.67c-13.15,0-11.66,10.06-22.15,16.61-26.18,16.33-46.36,2.55-52.78,14.6-15.55,29.19-26.87,43.28-1.45,90.38,2.13,3.93,52.49,8.34,76.38,9.84h0V443.67Z"/></g></g></g></g><g id="exoprt"><g id="berge2-2" data-name="berge2"><g class="cls-7"><g class="cls-8"><rect class="cls-4" x="1767.18" y="443.67" width="723.89" height="773.13"/><path class="cls-5" d="M1767.18,443.67v.24c58.76,46.89,144.2,60.78,164,31.71,3.18-4.67,3.42-8.61.75-31.95Z"/><path class="cls-5" d="M1886.68,443.67c.18,4.85.47,9,.68,12.08,5.76,83.19,59.13,139.2,89.07,170.63C2019.82,671.92,2083.75,739,2156,723c49.58-11,80.71-56.13,96.14-78.52,30.48-44.21,38-88.41,43.83-122.31s10-58.67,10.24-78.52Z"/><path class="cls-6" d="M1767.18,443.67S1842,578.24,1871.56,575c32.37-3.5,17.8-43.39,35.59-72.48,11.38-18.6,62.63-21.08,68.78-58.89Z"/><path class="cls-6" d="M1931.19,513.63c-7.64-36.11-45.59-52.68-57.5-57.88-21.57-9.42-21.75,0-76.29-10.76-5.18-1-18.46-1.32-30.22-1.32V575.1c31.58,2,38.19-.3,93.32-4.08,41.34-2.84,52.91-.59,62.68-12.09C1937,542.69,1931.89,517,1931.19,513.63Z"/></g><g class="cls-9"><rect class="cls-4" x="-152.92" y="443.67" width="723.89" height="773.13"/><path class="cls-5" d="M-152.92,443.67v.24c58.76,46.89,144.19,60.78,164,31.71,3.18-4.67,3.42-8.61.75-31.95Z"/><path class="cls-5" d="M-33.42,443.67c.18,4.85.46,9,.68,12.08C-27,538.94,26.39,595,56.33,626.38,99.72,671.92,163.64,739,235.89,723c49.58-11,80.71-56.13,96.14-78.52,30.48-44.21,38-88.41,43.83-122.31s10-58.67,10.24-78.52Z"/><path class="cls-6" d="M362.22,443.67c6.15,37.81,33.53,55.8,36.26,71.73,7.29,42.51-7.21,92.06-.71,103.43,19.11,33.38,42-93,80.83-100.67,29.24-5.8,92.37-74.49,92.37-74.49Z"/><path class="cls-6" d="M-152.92,443.67S-78.13,578.24-48.54,575c32.37-3.5,17.8-43.39,35.59-72.48,11.38-18.6,62.63-21.08,68.78-58.89Z"/><path class="cls-6" d="M571,443.67c-13.15,0-11.66,10.06-22.15,16.61-26.18,16.33-46.36,2.55-52.78,14.6-15.55,29.19-26.87,43.28-1.45,90.38,2.13,3.93,52.49,8.34,76.38,9.84h0V443.67Z"/><path class="cls-6" d="M11.09,513.63C3.45,477.52-34.5,461-46.41,455.75c-21.57-9.42-21.76,0-76.29-10.76-5.19-1-18.47-1.32-30.22-1.32V575.1c31.58,2,38.19-.3,93.31-4.08,41.34-2.84,52.92-.59,62.69-12.09C16.88,542.69,11.79,517,11.09,513.63Z"/></g></g></g><g id="berge1"><g class="cls-10"><path class="cls-11" d="M145.1,117.78c-36.74,11.87-34.21,25.56-58.19,89-29.46,78-44.59,82.23-32,104.4,17.88,31.58,63.66,53,111.5,76.29,50.58,24.65,88,42.89,151.13,53.77,78.29,13.5,106.64.27,271.53.86,167.87.6,230.9,14.64,273.68-3.42,22.17-9.37,6.72-13.77,36.64-56.48,26.58-37.95,50-50.54,32.32-62.46-18-12.1,33.62-130.25,2.42-131.14-325.45-9.37-514.92,107.9-543.32,88.35-12.69-8.73-4.15-23.79,12.93-53.91,23.61-41.64,54.28-48.6,43.31-67.29-18.5-31.54-125.1-44.64-133.82-45.66C294.47,107.89,204.83,98.48,145.1,117.78Z"/><path class="cls-12" d="M845.89,69c-74,.69-106.57,10.31-224.57,13.85-201,6-253.46-31.52-366.8-7.38-92,19.58-142,62.33-161,78.5-46.37,39.62-54.8,75.58-56.14,85C30.69,286.23,61.6,338.63,88,338.72c37.42.12,75.07-153.34,223.56-129.91,76.35,12,34.94,27.57,72.37,80.27,31,43.65,142.14,85.6,208.35,87,86.09,1.83,197.13-66.8,198.37-115.43.64-24.9,99-88.57,101.06-111.92C895.41,105.86,858.86,68.9,845.89,69Z"/><path class="cls-13" d="M715.34,462.42c.23-17.16-3-31-11.39-44.05-35.77-55.67-114.06-21.55-386.17-61.93-40.92-6.07-87.57-14-121.28,9.27-35.45,24.5-37.69,70.52-36.46,96.71Z"/><path class="cls-14" d="M0-8.2V-8c77.78,28.54,192.73,37,219,19.3,4.21-2.84,4.53-5.24,1-19.45Z"/><path class="cls-13" d="M160-8.2c.25,2.95.62,5.47.9,7.36C168.57,49.8,239.21,83.89,278.85,103c57.42,27.72,142,68.56,237.67,58.83,65.63-6.68,106.83-34.17,127.26-47.8,40.34-26.91,50.34-53.82,58-74.45S715.06,3.88,715.34-8.2Z"/><path class="cls-15" d="M683.74-8.2c-39.1,23.68-29.61,42.48-26,52.17C667.38,69.85,639,99.12,721.37,98.2c65.51-.73,133.07,3.64,162.82-17.46C934.71,44.89,960.05-8.2,960.05-8.2Z"/><path class="cls-15" d="M279.78,451.85a28,28,0,0,1-1.6,10.57H0c3.42-6.66,201.24-89.65,199.31-68-1.87,21-12.68,35,8,45"/><path class="cls-15" d="M0-8.2s100.87,81.92,140,80c42.85-2.13,23.56-26.41,47.11-44.12,15.06-11.32,82.9-12.83,91-35.85Z"/><path class="cls-13" d="M960.05,204.13h0c-22.66,8.88-24.78,22.63-25.26,25.74-.66,4.21-1.83,11.81,8.42,16.77,1.24.6,9.14,4.42,16.84,3.45h0Z"/><path class="cls-15" d="M920.91,287.89s-33.27,108.92-46.32,123.75S826,443,790.68,441.73c-53.88-1.87-77.13-64.67-97.31-62.5-7.62.82-8.73,10.25-11.23,72.62a28,28,0,0,0,1.6,10.57H960.05V318.07C944.07,304.67,926.43,287.36,920.91,287.89Z"/><path class="cls-15" d="M960.05-8.2c-17.4,0-15.43,6.13-29.32,10.11-34.65,9.94-61.37,1.55-69.87,8.89-20.58,17.77,5.19,90,38.84,118.65,2.81,2.39,28.73,5.78,60.35,6.7V-8.2Z"/><path class="cls-13" d="M846,122.1c-46.88,10-129.25,37.59-148.89,53.86-9.28,7.69,18.19,30.33,83.67,45.49,35.32,8.18,83.89,14.16,103.44,22,41.93,16.78,6.39,68.89,63.7,80.92.89.18,11.34,2.14,12.09,2.25V129C959.3,129.09,880.65,114.76,846,122.1Z"/><path class="cls-15" d="M219,34.39c-10.11-22-60.34-32.07-76.11-35.23C114.3-6.58,112.18-.83,40-7.39,33.14-8,15.56-8.2,0-8.2V129c41.8,1.21,184.05,17.55,220.13-13.68,44.55-38.57,2.25-36.09-11.78-53.36C198.28,49.56,219.89,36.41,219,34.39Z"/><path class="cls-13" d="M216.09,209.6c-28.35-15.24-65-50.18-72.46-68.17-2.33-5.61,2.6-13.43-10.48-17.18-11.05-3.16-27-1.35-73,1.55C8.71,129,8,128,0,129V326.6c8,1,8.71-1.43,60.12,1.81,46,2.9,61.9,4.68,73,1.55,55.52-15.64,183.53-41.27,223.6-61.89C382.84,254.63,224.52,214.12,216.09,209.6Z"/><path class="cls-15" d="M208.35,392.25c-12.92-7-23.2,4.45-62-14.6C100.84,355.29,168.9,323.7,0,326.6V462.42c15.56,0,33.14-.18,40-.81,72.18-6.56,74.3-.81,102.85-6.55,15.77-3.16,66-13.25,76.11-35.23C219.89,417.81,226.63,402.14,208.35,392.25Z"/><path class="cls-11" d="M1105.05,117.78c-36.74,11.87-34.21,25.56-58.19,89-29.47,78-44.59,82.23-32,104.4,17.88,31.58,63.66,53,111.5,76.29,50.58,24.65,88,42.89,151.13,53.77,78.29,13.5,106.64.27,271.53.86,167.87.6,230.9,14.64,273.68-3.42,22.17-9.37,6.72-13.77,36.64-56.48,26.58-37.95,50-50.54,32.32-62.46-18-12.1,33.62-130.25,2.42-131.14-325.45-9.37-514.92,107.9-543.32,88.35-12.69-8.73-4.15-23.79,12.93-53.91,23.61-41.64,54.28-48.6,43.31-67.29-18.5-31.54-125.1-44.64-133.82-45.66C1254.42,107.89,1164.78,98.48,1105.05,117.78Z"/><path class="cls-12" d="M1805.84,69c-74,.69-106.57,10.31-224.57,13.85-201,6-253.46-31.52-366.8-7.38-92,19.58-142,62.33-161,78.5-46.37,39.62-54.8,75.58-56.14,85-6.74,47.26,24.17,99.66,50.53,99.75,37.42.12,75.07-153.34,223.56-129.91,76.35,12,34.94,27.57,72.37,80.27,31,43.65,142.13,85.6,208.35,87,86.09,1.83,197.12-66.8,198.37-115.43.64-24.9,99-88.57,101.06-111.92C1855.36,105.86,1818.81,68.9,1805.84,69Z"/><path class="cls-13" d="M1675.29,462.42c.23-17.16-3-31-11.39-44.05-35.77-55.67-114.06-21.55-386.17-61.93-40.92-6.07-87.58-14-121.28,9.27-35.45,24.5-37.69,70.52-36.46,96.71Z"/><path class="cls-14" d="M960-8.2V-8c77.78,28.54,192.73,37,219,19.3,4.21-2.84,4.52-5.24,1-19.45Z"/><path class="cls-13" d="M1120-8.2c.24,2.95.62,5.47.9,7.36,7.63,50.64,78.27,84.73,117.9,103.86,57.43,27.72,142,68.56,237.68,58.83,65.63-6.68,106.83-34.17,127.26-47.8,40.34-26.91,50.34-53.82,58-74.45S1675,3.88,1675.29-8.2Z"/><path class="cls-15" d="M1643.69-8.2c-39.1,23.68-29.61,42.48-26,52.17,9.64,25.88-18.71,55.15,63.63,54.23,65.51-.73,133.07,3.64,162.81-17.46C1894.66,44.89,1920-8.2,1920-8.2Z"/><path class="cls-15" d="M1239.73,451.85a28,28,0,0,1-1.6,10.57H960c3.42-6.66,201.24-89.65,199.31-68-1.87,21-12.68,35,8,45"/><path class="cls-15" d="M960-8.2s100.87,81.92,140,80c42.85-2.13,23.56-26.41,47.11-44.12,15.06-11.32,82.9-12.83,91-35.85Z"/><path class="cls-13" d="M1920,204.13h0c-22.66,8.88-24.78,22.63-25.26,25.74-.66,4.21-1.83,11.81,8.42,16.77,1.24.6,9.14,4.42,16.84,3.45h0Z"/><path class="cls-15" d="M1880.86,287.89s-33.27,108.92-46.32,123.75-48.61,31.32-83.91,30.09c-53.88-1.87-77.13-64.67-97.31-62.5-7.62.82-8.73,10.25-11.23,72.62a28,28,0,0,0,1.6,10.57H1920V318.07C1904,304.67,1886.38,287.36,1880.86,287.89Z"/><path class="cls-15" d="M1920-8.2c-17.4,0-15.43,6.13-29.32,10.11-34.65,9.94-61.37,1.55-69.87,8.89-20.58,17.77,5.19,90,38.84,118.65,2.81,2.39,28.73,5.78,60.35,6.7V-8.2Z"/><path class="cls-13" d="M1806,122.1c-46.88,10-129.25,37.59-148.89,53.86-9.28,7.69,18.19,30.33,83.67,45.49,35.31,8.18,83.89,14.16,103.44,22,41.92,16.78,6.39,68.89,63.7,80.92.89.18,11.34,2.14,12.09,2.25V129C1919.25,129.09,1840.6,114.76,1806,122.1Z"/><path class="cls-15" d="M1178.91,34.39c-10.11-22-60.34-32.07-76.11-35.23-28.55-5.74-30.67,0-102.85-6.55-6.87-.63-24.44-.81-40-.81V129c41.8,1.21,184,17.55,220.13-13.68,44.55-38.57,2.25-36.09-11.78-53.36C1158.23,49.56,1179.84,36.41,1178.91,34.39Z"/><path class="cls-13" d="M1176,209.6c-28.36-15.24-65-50.18-72.46-68.17-2.33-5.61,2.6-13.43-10.48-17.18-11-3.16-27-1.35-73,1.55C968.66,129,968,128,960,129V326.6c8,1,8.71-1.43,60.12,1.81,46,2.9,61.9,4.68,73,1.55,55.52-15.64,183.53-41.27,223.6-61.89C1342.79,254.63,1184.47,214.12,1176,209.6Z"/><path class="cls-15" d="M1168.3,392.25c-12.92-7-23.2,4.45-62-14.6-45.54-22.36,22.52-53.95-146.38-51V462.42c15.56,0,33.13-.18,40-.81,72.18-6.56,74.3-.81,102.85-6.55,15.77-3.16,66-13.25,76.11-35.23C1179.84,417.81,1186.58,402.14,1168.3,392.25Z"/><rect class="cls-16" y="-202.57" width="1920" height="664.81"/></g><g class="cls-17"><path d="M1828.9,319a211.67,211.67,0,0,0,91.1-20V286.11c-130.45,0-202.13-231.18-401.92-147.37q-6,2.5-11.69,4.61C1648.79,139.79,1717.37,319,1828.9,319Z"/><path d="M1427,162.7q9.08-4,17.81-7.17C1334.19,155.3,1295.93,18.06,1087.94.62c-32.89-2.75-61.53,3.81-87.71,15.93C1244.77,40.12,1252.32,240.4,1427,162.7Z"/><path d="M585.8,212.74c50.27,8.32,91.12-3.26,127.28-24.3a206.37,206.37,0,0,1-36.18-2.51c-106.44-16.62-156.27-131-316.1-131-21.11,0-40,7.88-58.05,20.72C437,90.86,487.07,196.39,585.8,212.74Z"/><path d="M26,284.71a240.8,240.8,0,0,1-26,1.4V299A233.48,233.48,0,0,0,26,284.71Z"/></g><g class="cls-18"><path class="cls-19" d="M1920,304V286.11c-31.55,0-59.67-13.53-87-32.85C1861.13,276.49,1889.15,296.29,1920,304Z"/><path class="cls-19" d="M27.68,307.51c196.79,0,246.4-231.18,360.8-231.18,159.83,0,209.66,114.38,316.1,131C890.83,236.42,947.83,8,1115.62,22c247.87,20.77,254.67,211.72,430.13,138.12,88.56-37.16,152-12.42,206.44,26.64-60.91-50-130.17-91.65-234.11-48C1342.62,212.35,1335.82,21.4,1087.94.62,920.15-13.44,863.15,215,676.9,185.93c-106.44-16.62-156.27-131-316.1-131-114.4,0-164,231.18-360.8,231.18V304A113.12,113.12,0,0,0,27.68,307.51Z"/></g></g></g></svg>