<svg xmlns="http://www.w3.org/2000/svg" xmlns:xlink="http://www.w3.org/1999/xlink" viewBox="0 0 1920 756.81"><defs><style>.cls-1{fill:none;}.cls-2{clip-path:url(#clip-path);}.cls-3{clip-path:url(#clip-path-2);}.cls-4{fill:#7d7d7d;}.cls-5{fill:#949494;}.cls-6{fill:#8d8d8d;}.cls-7{fill:#858585;}.cls-8{fill:#8f8f8f;}.cls-9{fill:#929292;}.cls-10{fill:#878787;}.cls-11{opacity:0.1;}.cls-12{fill:#dedede;}.cls-13{opacity:0.07;}.cls-14{fill:#fff;opacity:0.2;}.cls-15{clip-path:url(#clip-path-3);}.cls-16{clip-path:url(#clip-path-4);}.cls-17{clip-path:url(#clip-path-5);}.cls-18{clip-path:url(#clip-path-6);}.cls-19{clip-path:url(#clip-path-7);}.cls-20{clip-path:url(#clip-path-8);}.cls-21{clip-path:url(#clip-path-9);}</style><clipPath id="clip-path"><rect class="cls-1" x="-1986.65" y="-0.12" width="1920" height="756.93"/></clipPath><clipPath id="clip-path-2"><path class="cls-1" d="M54.1,35.45-219.47,661.53h674L181,35.45C160.33-11.82,74.75-11.82,54.1,35.45Z"/></clipPath><clipPath id="clip-path-3"><path class="cls-1" d="M-530.52,122.68-872.27,661.53h842L-372,122.68C-397.81,82-504.72,82-530.52,122.68Z"/></clipPath><clipPath id="clip-path-4"><rect class="cls-1" y="-0.12" width="1920" height="756.93"/></clipPath><clipPath id="clip-path-5"><path class="cls-1" d="M1069.77,97.5l-209.42,564h516l-209.42-564C1151.1,54.92,1085.58,54.92,1069.77,97.5Z"/></clipPath><clipPath id="clip-path-6"><path class="cls-1" d="M2040.75,35.45,1767.18,661.53h674L2167.64,35.45C2147-11.82,2061.4-11.82,2040.75,35.45Z"/></clipPath><clipPath id="clip-path-7"><path class="cls-1" d="M658.26,214.5l-371.43,447H1202l-371.43-447C802.5,180.75,686.3,180.75,658.26,214.5Z"/></clipPath><clipPath id="clip-path-8"><path class="cls-1" d="M1456.13,124.5l-341.75,537h842l-341.75-537C1588.84,84,1481.93,84,1456.13,124.5Z"/></clipPath><clipPath id="clip-path-9"><path class="cls-1" d="M120.65,35.45-152.92,661.53h674L247.54,35.45C226.88-11.82,141.3-11.82,120.65,35.45Z"/></clipPath></defs><title>mountains</title><g id="game"><g id="berge2"><g class="cls-2"><g class="cls-3"><rect class="cls-4" x="-219.47" y="-110.43" width="723.89" height="773.13"/><path class="cls-5" d="M13.82,250.47c-16.07,14-15,30.07-25.45,104.69C-24.52,446.87-30.32,451.9-24.83,478c7.82,37.15,27,62.32,48,89.75,22.12,29,38.49,50.46,66.1,63.26,34.24,15.88,46.64.32,118.76,1,73.43.7,101,17.22,119.71-4,9.7-11,2.94-16.19,16-66.44,11.63-44.65,21.89-59.46,14.14-73.49C350,473.81,330,472,316.38,470.93c-142.35-11-182.69-10.23-195.11-33.22-5.55-10.27-1.82-28,5.65-63.42,10.33-49,23.75-57.18,19-79.17-8.09-37.11-54.72-52.51-58.53-53.71C79.15,238.82,39.94,227.76,13.82,250.47Z"/><path class="cls-6" d="M301.33,590.68c19.54,25.79,88.47,11.28,128.18-26.17,32.25-30.41,38.49-69.59,47.13-123.82,3.9-24.49-10.62-37.21,3.27-98.11,4.6-20.13,24.51-73.49-16.49-107.1-2.83-2.33-45.44-30.4-79.15-66.6C364.65,147.81,355,137.4,342.8,120.56,329,101.4,322.05,91.82,317.8,79c-9.5-28.69,2.21-38.9-3.28-73.2-2.34-14.62-7-43.5-29.22-63.42-17.54-15.7-44.92-24.86-70.69-16.11-34.37,11.67-47.54,49-49,53.36C143,46.69,208.14,128.33,242.89,171.9,323.12,272.52,363.81,258,381.44,312.84,417.44,424.77,267.32,545.83,301.33,590.68Z"/><path class="cls-7" d="M418.18,16.41C415.3,6.15,337.67,33.26,248.51,39.06,96.66,48.94,57-12.48-28.6,27-98.09,59-135.89,128.89-150.19,155.33c-35,64.77-40,123.57-41,138.93-5.09,77.27,16.85,162.94,36.76,163.08,28.27.2,11.21-172.29,110.28-240.1C-7,191.79,51.8,177.53,90.16,203.65,150,244.44,112.84,351.35,158,374.29c53.5,27.15,186.36-81.76,183.8-179.7-1.07-40.68-25-60.22-14.14-96.64C344.58,41.35,421,26.39,418.18,16.41Z"/><path class="cls-8" d="M-179.88-25.87c-2.57,11.4,29.95-29.13,62.33,31.71,28.14,52.89,18.51,56.29,0,61.91-25.48,7.74-32.86-35.08-62.33-27.18C-200,46-209.67,108.13-192.61,156.84c1.85,5.28,23,62.91,74.94,78.53,65.52,19.69,134.26-41.26,159.76-104.2,4.54-11.19,27.49-95.89-1.41-154C-11.41-127.62-175.87-43.65-179.88-25.87Z"/><path class="cls-8" d="M-203.8,515.22c13.44-65.19,76-59.36,121.12-133.89,48.13-79.52,6-134.17,55.61-184.22,40.42-40.74,106-42.47,149.87-29.19,35.19,10.65,55.71,30.73,93.31,68.45,69.54,69.76,111,111.35,104.63,164.09-8.61,71.29-101.53,137.77-157.41,111.74-36.14-16.83-55.33-71.67-55.61-113.75-.35-52.72,29.05-75.81,15.08-104.7-12.74-26.34-53-39.93-80.12-28.18C-9.13,288-1,398.17.27,415.56c2.26,30.75,6.37,86.6,44.3,125.84,39.07,40.42,87.92,36.21,93.31,68.45,3.69,22-15.71,42.72-17.91,43.29-36.88,9.56-56.74-1.92-93.67-8-163.89-27.21-182.34,2.4-206.06-28.19C-199.7,591.19-211.28,551.51-203.8,515.22Z"/><path class="cls-9" d="M319.55,662.7c.17-16.07-2.27-29-8.61-41.26-27-52.16-86.17-20.19-291.75-58-30.91-5.69-66.16-13.15-91.62,8.68-26.78,23-28.47,66.07-27.54,90.6Z"/><path class="cls-10" d="M504.42,662.7c-2.58-10.93-19.9-79.9-53-83.8-30.67-3.62-44.53,52.13-74.93,49.83-40.71-3.08-58.28-106.26-73.52-102.68-5.76,1.34-6.59,16.84-8.49,119.29a97.45,97.45,0,0,0,1.21,17.36Z"/><path class="cls-9" d="M-100-110.43c.18,4.85.46,9,.68,12.08,5.76,83.19,59.13,139.2,89.07,170.63,43.39,45.54,107.31,112.64,179.56,96.64,49.58-11,80.71-56.13,96.14-78.52C296,46.19,303.52,2,309.31-31.91s10-58.67,10.24-78.52Z"/><path class="cls-10" d="M295.67-110.43c6.15,37.81,33.53,55.8,36.26,71.73,7.29,42.51-7.21,92.06-.71,103.43,19.11,33.38,42-93,80.83-100.67,29.24-5.8,92.37-74.49,92.37-74.49Z"/><path class="cls-6" d="M504.42,238.39h0C487.3,253,485.7,275.56,485.33,280.67c-.49,6.92-1.38,19.41,6.37,27.55.93,1,6.9,7.27,12.72,5.67h0Z"/><path class="cls-10" d="M504.42,531.27h0c-23.89,1.51-45,14.2-44.3,18.68.85,5.48,34.72,2.4,35.35,7.55.52,4.34-23.66,5.31-43.83,23.66-15.46,14.07-28.79,38.55-22.15,50.34s26.6-1.74,52.78,14.59c10.49,6.55,9,16.61,22.15,16.61h0Z"/><path class="cls-9" d="M504.42,276.14h0c-4.31,1.18-11.25,3.91-21.21,13.59-28.75,27.95-36.47,69-37.7,76-10.81,61.36,9.88,144.81,57,165.69.7.32,1.33.57,1.91.8Z"/><path class="cls-10" d="M504.42-110.43c-13.15,0-11.66,10.06-22.15,16.61-26.18,16.33-46.36,2.55-52.78,14.6C413.94-50,402.62-35.94,428,11.16c2.13,3.93,52.49,8.34,76.38,9.84h0V-110.43Z"/><path class="cls-9" d="M504.42,20.06c-.58.22-61.72-24-88.62-5.5-36.44,25.11-26.56,114.52-15.75,175.88,1.22,7,54.41,44.15,83.16,72.11,10,9.67,16.9,12.4,21.21,13.59h0Z"/></g><path class="cls-11" d="M28.81,344.16c58.08,2.57,64.74-30.84,92.48-28.27s12.32,20.39,71.56,24.42c50.25,3.41,62.91-16.54,106.64-33.65L181,35.45c-20.66-47.27-106.24-47.27-126.89,0l-118,270C-34.93,314.39-22.46,341.89,28.81,344.16Z"/><path class="cls-12" d="M28.62,330.63c58.07,2.57,64.74-30.84,92.48-28.27s12.32,20.39,71.56,24.42c48.33,3.28,61.89-15,101.78-31.69L181,35.45c-20.66-47.27-106.24-47.27-126.89,0L-58.79,293.8C-33.4,304.21-19.43,328.5,28.62,330.63Z"/><path class="cls-13" d="M181,35.45C166.86,3.11,122.34-7.09,89,4.81c15.39,5.5,28.4,15.71,34.92,30.64L397.5,661.53h57.05Z"/><path class="cls-14" d="M129.1.76c-30-3.94-63.17,7.61-75,34.69L-219.47,661.53h23.11L77.21,35.45C86,15.26,106.7,3.7,129.1.76Z"/><g class="cls-15"><rect class="cls-4" x="-872.27" y="-2.88" width="904.3" height="665.42"/><path class="cls-6" d="M-221.68,600.56c24.42,22.19,110.53,9.7,160.14-22.53,40.28-26.17,48.08-59.9,58.87-106.57,4.87-21.08-13.27-32,4.09-84.45C7.15,369.69,32,323.76-19.19,294.83c-3.54-2-56.76-26.15-98.87-57.31-24.51-18.14-36.63-27.1-51.81-41.59-17.28-16.49-25.92-24.74-31.22-35.77-11.88-24.69,2.75-33.49-4.11-63-2.92-12.59-8.69-37.44-36.5-54.59C-263.61,29.06-297.82,21.18-330,28.71c-42.93,10-59.38,42.14-61.23,45.92-28.18,57.72,53.15,128,96.56,165.49,100.23,86.6,151.06,74.12,173.08,121.3C-76.62,457.75-264.15,562-221.68,600.56Z"/><path class="cls-10" d="M32,662.54c-3.22-9.41-24.86-68.77-66.23-72.13-38.31-3.11-55.63,44.87-93.61,42.89-50.86-2.65-72.8-91.45-91.84-88.38-7.19,1.16-8.24,14.5-10.6,102.67a57.73,57.73,0,0,0,1.51,14.95Z"/><path class="cls-10" d="M-228.74-2.88c7.68,32.54,41.88,48,45.29,61.73,9.1,36.59-9,79.24-.88,89,23.87,28.73,52.48-80,101-86.64C-46.84,56.24,32-2.88,32-2.88Z"/><path class="cls-6" d="M32,297.34h0c-21.38,12.55-23.39,32-23.84,36.39-.62,6-1.73,16.71,8,23.72,1.17.85,8.62,6.25,15.89,4.87h0Z"/><path class="cls-10" d="M32,549.42h0c-29.84,1.29-56.21,12.22-55.34,16.08,1.07,4.72,43.37,2.06,44.16,6.5.65,3.73-29.56,4.56-54.76,20.36-19.31,12.1-36,33.18-27.67,43.32s33.24-1.49,65.94,12.56c13.11,5.64,11.25,14.3,27.67,14.3h0Z"/><path class="cls-9" d="M32,329.83h0c-5.39,1-14.06,3.37-26.49,11.7C-30.38,365.59-40,401-41.56,406.94c-13.5,52.81,12.34,124.64,71.2,142.61.88.27,1.66.49,2.39.68Z"/><path class="cls-10" d="M32-2.88c-16.42,0-14.56,8.66-27.67,14.3C-28.34,25.47-53.56,13.61-61.58,24-81,49.1-95.14,61.24-63.38,101.77c2.65,3.39,65.57,7.17,95.41,8.47h0V-2.88Z"/><path class="cls-9" d="M32,109.43c-.73.19-77.1-20.69-110.7-4.73-45.53,21.61-33.19,98.56-19.69,151.37,1.53,6,68,38,103.9,62.06C18,326.46,26.64,328.81,32,329.83h0Z"/></g></g></g></g><g id="exoprt"><g id="berge2-2" data-name="berge2"><g class="cls-16"><g class="cls-17"><rect class="cls-4" x="860.35" y="-33.92" width="554.15" height="696.51"/><path class="cls-5" d="M1038.94,291.21c-12.3,12.58-11.46,27.09-19.49,94.32-9.86,82.62-14.3,87.14-10.1,110.64,6,33.47,20.69,56.15,36.71,80.86,16.93,26.13,29.46,45.45,50.6,57,26.21,14.31,35.71.28,90.91.91,56.21.63,77.32,15.51,91.64-3.63,7.42-9.93,2.25-14.59,12.27-59.86,8.9-40.22,16.75-53.56,10.82-66.2-6-12.83-21.3-14.47-31.75-15.42-109-9.92-139.85-9.21-149.36-29.93-4.25-9.25-1.39-25.21,4.33-57.13,7.91-44.13,18.18-51.51,14.5-71.33-6.19-33.42-41.88-47.3-44.8-48.38C1089,280.72,1058.94,270.75,1038.94,291.21Z"/><path class="cls-6" d="M1259,597.71c15,23.23,67.73,10.15,98.13-23.58,24.68-27.4,29.46-62.69,36.07-111.55,3-22.06-8.13-33.52,2.51-88.39,3.51-18.13,18.76-66.2-12.63-96.49-2.16-2.09-34.78-27.38-60.59-60-15-19-22.44-28.36-31.74-43.53-10.59-17.26-15.88-25.89-19.14-37.45-7.27-25.84,1.69-35-2.51-65.94-1.79-13.17-5.33-39.18-22.37-57.13-13.42-14.15-34.39-22.4-54.11-14.51-26.31,10.51-36.39,44.11-37.53,48.06-17.27,60.42,32.57,134,59.17,173.22,61.42,90.65,92.57,77.58,106.07,127C1347.92,448.23,1233,557.3,1259,597.71Z"/><path class="cls-7" d="M1348.48,80.35c-2.21-9.24-61.63,15.18-129.88,20.41-116.25,8.9-146.58-46.44-212.13-10.89-53.2,28.85-82.13,91.81-93.08,115.63C886.57,263.85,882.77,316.82,882,330.66c-3.9,69.62,12.9,146.79,28.14,146.92,21.64.18,8.58-155.22,84.42-216.3C1023,238.35,1068,225.5,1097.38,249c45.83,36.74,17.36,133.06,51.95,153.72,41,24.46,142.67-73.66,140.7-161.89-.81-36.65-19.14-54.26-10.82-87.06C1292.14,102.82,1350.62,89.34,1348.48,80.35Z"/><path class="cls-8" d="M890.66,42.26c-2,10.27,22.92-26.24,47.71,28.57,21.54,47.64,14.17,50.71,0,55.77-19.5,7-25.15-31.6-47.71-24.48C875.28,107,867.85,163,880.92,206.86c1.41,4.75,17.6,56.68,57.36,70.74,50.16,17.74,102.78-37.16,122.3-93.86,3.47-10.08,21-86.39-1.08-138.76C1019.63-49.41,893.73,26.24,890.66,42.26Z"/><path class="cls-8" d="M872.35,529.72c10.29-58.73,58.18-53.47,92.72-120.61,36.84-71.64,4.56-120.88,42.57-166,30.94-36.7,81.13-38.26,114.72-26.3,26.94,9.59,42.65,27.69,71.44,61.67,53.23,62.84,85,100.31,80.09,147.83-6.59,64.22-77.72,124.11-120.5,100.66-27.66-15.16-42.36-64.56-42.57-102.48-.27-47.49,22.24-68.29,11.54-94.32-9.75-23.73-40.59-36-61.33-25.39-39.66,20.25-33.45,119.46-32.47,135.13,1.74,27.7,4.89,78,33.92,113.36,29.9,36.42,67.3,32.63,71.43,61.67,2.82,19.87-12,38.49-13.71,39-28.23,8.62-43.44-1.73-71.7-7.25C923,622.2,908.91,648.88,890.75,621.32,875.49,598.16,866.62,562.42,872.35,529.72Z"/><path class="cls-9" d="M1273,662.59c.13-14.49-1.74-26.15-6.59-37.17-20.69-47-66-18.2-223.34-52.28-23.66-5.12-50.64-11.84-70.14,7.83-20.5,20.68-21.79,59.51-21.08,81.62Z"/><path class="cls-10" d="M1414.5,662.59c-2-9.86-15.23-72-40.59-75.5-23.47-3.26-34.09,47-57.36,44.89-31.17-2.77-44.61-95.72-56.28-92.51-4.41,1.22-5,15.18-6.49,107.47a101.94,101.94,0,0,0,.92,15.65Z"/><path class="cls-9" d="M860.35-33.92v.22c45,42.24,110.38,54.75,125.55,28.57,2.44-4.21,2.62-7.77.58-28.79Z"/><path class="cls-9" d="M951.83-33.92c.14,4.37.36,8.09.52,10.88,4.41,74.95,45.26,125.41,68.19,153.72,33.21,41,82.15,101.48,137.45,87.07,38-9.89,61.79-50.58,73.6-70.74,23.33-39.83,29.11-79.65,33.55-110.19S1272.81-16,1273-33.92Z"/><path class="cls-10" d="M1254.7-33.92c4.71,34.06,25.67,50.27,27.76,64.62,5.57,38.29-5.53,82.94-.54,93.18,14.62,30.07,32.15-83.74,61.87-90.69,22.38-5.23,70.71-67.11,70.71-67.11Z"/><path class="cls-10" d="M1021.08,646.94a101.89,101.89,0,0,1-.93,15.65H860.35c2-9.86,114.76-144.72,113.65-112.69-1.09,31.07-18.1,80.75,5.17,78.68"/><path class="cls-10" d="M860.35-33.92s57.26,121.23,79.9,118.35c24.79-3.15,13.63-39.09,27.25-65.3,8.71-16.75,47.94-19,52.65-53Z"/><path class="cls-6" d="M1414.5,280.32h0c-13.1,13.14-14.33,33.5-14.61,38.09-.38,6.25-1.06,17.49,4.87,24.83.72.89,5.29,6.55,9.74,5.1h0Z"/><path class="cls-10" d="M1414.5,544.18h0c-18.29,1.36-34.45,12.8-33.91,16.83.65,4.94,26.58,2.16,27.06,6.81.4,3.9-18.12,4.77-33.56,21.31-11.83,12.67-22,34.73-16.95,45.34s20.36-1.56,40.4,13.15c8,5.9,6.89,15,17,15h0Z"/><path class="cls-9" d="M1414.5,314.33h0c-3.3,1.07-8.62,3.53-16.23,12.25-22,25.18-27.93,62.2-28.87,68.47-8.27,55.28,7.57,130.46,43.64,149.27.54.28,1,.51,1.46.71Z"/><path class="cls-10" d="M1414.5-33.92c-10.07,0-8.92,9.07-17,15-20,14.72-35.49,2.3-40.4,13.15-11.91,26.31-20.57,39-1.11,81.43,1.63,3.54,40.18,7.51,58.47,8.86h0V-33.92Z"/><path class="cls-9" d="M1414.5,83.64c-.45.2-47.25-21.65-67.84-5-27.9,22.63-20.34,103.18-12.06,158.45.94,6.27,41.66,39.77,63.67,65,7.61,8.72,12.93,11.18,16.23,12.24h0Z"/><path class="cls-10" d="M985.9,29.11C980.05-3.42,951-18.35,941.89-23c-16.52-8.48-16.66,0-58.4-9.69-4-.92-14.14-1.19-23.14-1.19V84.48c24.18,1.79,29.24-.27,71.44-3.68,31.64-2.55,40.5-.53,48-10.88C990.34,55.28,986.44,32.09,985.9,29.11Z"/><path class="cls-9" d="M946.22,72.64c-7.23-7.44-16.45-3.18-46.54,3.63-33.63,7.62-34.1,5-39.33,7.37V314.33c11.2,3.63,18.5-2.5,38.61-10.88,26.72-11.14,32.81-8.23,34.63-14.51,5.17-17.83-43.8-41.51-40.77-70.29,2.08-19.74,26-17,46.18-54.86A123.25,123.25,0,0,0,953.07,113C953.79,99.72,954.77,81.45,946.22,72.64Z"/><path class="cls-9" d="M953.07,515.67A123.19,123.19,0,0,0,939,464.88C918.84,427,894.9,429.75,892.82,410c-3-28.77,45.94-52.45,40.77-70.28-1.82-6.29-7.91-3.37-34.63-14.51-20.11-8.39-27.41-14.51-38.61-10.89V545c5.23,2.34,5.7-.25,39.33,7.37,30.09,6.81,39.31,11.06,46.54,3.63C954.77,547.21,953.79,529,953.07,515.67Z"/><path class="cls-10" d="M979.77,558.75c-7.48-10.36-16.34-8.33-48-10.89-42.2-3.4-47.26-5.46-71.44-3.68V662.59c9,0,19.17-.27,23.14-1.19,41.74-9.71,41.88-1.21,58.4-9.7,9.11-4.68,38.16-19.61,44-52.14C986.44,596.57,990.34,573.38,979.77,558.75Z"/><path class="cls-6" d="M924.21,285.43c-2.25-6.08-8.29-7.83-17.05-10.21-15.78-4.28-32.84-8.9-46.81,5.1v68c6.27-2,4-15.43,10.83-22.78,8.9-9.65,20.79,4.72,35.44-3.06C919.13,315.86,928.13,296,924.21,285.43Z"/></g><path class="cls-11" d="M1050.41,375.61c44.46,2.32,49.56-27.78,70.8-25.46s9.43,18.37,54.78,22c38.46,3.08,48.16-14.89,81.63-30.31L1166.91,97.5c-15.81-42.58-81.33-42.58-97.14,0l-90.3,243.23C1001.62,348.79,1011.16,373.57,1050.41,375.61Z"/><path class="cls-12" d="M1050.27,363.43c44.45,2.31,49.56-27.79,70.79-25.47s9.43,18.37,54.78,22c37,3,47.38-13.56,77.92-28.55L1166.91,97.5c-15.81-42.58-81.33-42.58-97.14,0L983.36,330.24C1002.79,339.63,1013.48,361.51,1050.27,363.43Z"/><path class="cls-13" d="M1166.91,97.5c-10.82-29.13-44.9-38.32-70.41-27.6a47.62,47.62,0,0,1,26.73,27.6l209.42,564h43.68Z"/><path class="cls-14" d="M1127.19,66.25c-23-3.55-48.36,6.86-57.42,31.25l-209.42,564H878l209.42-564C1094.22,79.31,1110,68.9,1127.19,66.25Z"/><g class="cls-18"><rect class="cls-4" x="1767.18" y="-110.43" width="723.89" height="773.13"/><path class="cls-7" d="M2404.83,16.41c-2.88-10.26-80.51,16.85-169.66,22.65C2083.31,48.94,2043.68-12.48,1958.05,27c-69.49,32-107.28,101.91-121.59,128.35-35,64.77-40,123.57-41,138.93-5.09,77.27,16.85,162.94,36.76,163.08,28.27.2,11.21-172.29,110.28-240.1,37.19-25.45,96-39.71,134.32-13.59,59.86,40.79,22.68,147.7,67.86,170.64,53.5,27.15,186.37-81.76,183.8-179.7-1.07-40.68-25-60.22-14.14-96.64C2331.23,41.35,2407.63,26.39,2404.83,16.41Z"/><path class="cls-8" d="M1806.77-25.87c-2.57,11.4,30-29.13,62.33,31.71,28.14,52.89,18.51,56.29,0,61.91-25.48,7.74-32.86-35.08-62.33-27.18-20.09,5.39-29.79,67.56-12.72,116.27,1.84,5.28,23,62.91,74.93,78.53,65.52,19.69,134.26-41.26,159.76-104.2,4.54-11.19,27.49-95.89-1.41-154C1975.24-127.62,1810.78-43.65,1806.77-25.87Z"/><path class="cls-8" d="M1782.85,515.22c13.44-65.19,76-59.36,121.12-133.89,48.14-79.52,6-134.17,55.61-184.22,40.42-40.74,106-42.47,149.87-29.19,35.19,10.65,55.72,30.73,93.32,68.45,69.53,69.76,111,111.35,104.62,164.09-8.6,71.29-101.53,137.77-157.41,111.74-36.14-16.83-55.33-71.67-55.61-113.75-.35-52.72,29.05-75.81,15.08-104.7-12.73-26.34-53-39.93-80.12-28.18-51.8,22.47-43.69,132.6-42.41,150,2.26,30.75,6.38,86.6,44.3,125.84,39.07,40.42,87.92,36.21,93.31,68.45,3.69,22-15.7,42.72-17.91,43.29-36.87,9.56-56.74-1.92-93.66-8-163.9-27.21-182.35,2.4-206.07-28.19C1787,591.19,1775.37,551.51,1782.85,515.22Z"/><path class="cls-9" d="M2306.2,662.7c.17-16.07-2.27-29-8.61-41.26-27-52.16-86.17-20.19-291.75-58-30.91-5.69-66.15-13.15-91.62,8.68-26.78,23-28.47,66.07-27.54,90.6Z"/><path class="cls-9" d="M1886.68-110.43c.18,4.85.47,9,.68,12.08,5.76,83.19,59.13,139.2,89.07,170.63,43.39,45.54,107.32,112.64,179.56,96.64,49.58-11,80.71-56.13,96.14-78.52,30.48-44.21,38-88.41,43.83-122.31s10-58.67,10.24-78.52Z"/><path class="cls-10" d="M1977.14,645.34a96.53,96.53,0,0,1-1.21,17.36H1767.18c2.58-10.93,149.91-160.64,148.46-125.09-1.42,34.49-23.64,89.64,6.76,87.34"/><path class="cls-10" d="M1767.18-110.43S1842,24.14,1871.56,20.94c32.37-3.5,17.8-43.39,35.59-72.48,11.38-18.6,62.63-21.08,68.78-58.89Z"/><path class="cls-10" d="M1931.19-40.47c-7.64-36.11-45.59-52.68-57.5-57.88-21.57-9.42-21.75,0-76.29-10.76-5.18-1-18.46-1.32-30.22-1.32V21c31.58,2,38.19-.3,93.32-4.09,41.34-2.83,52.91-.59,62.68-12.08C1937-11.41,1931.89-37.16,1931.19-40.47Z"/><path class="cls-9" d="M1879.35,7.85c-9.44-8.25-21.48-3.53-60.8,4-43.93,8.45-44.54,5.58-51.37,8.18V276.14c14.63,4,24.16-2.78,50.43-12.08,34.91-12.37,42.86-9.14,45.24-16.11,6.76-19.8-57.21-46.08-53.25-78,2.71-21.91,34-18.83,60.32-60.9a122,122,0,0,0,18.38-56.38C1889.24,37.91,1890.53,17.63,1879.35,7.85Z"/><path class="cls-9" d="M1888.3,499.62a121.86,121.86,0,0,0-18.38-56.37c-26.34-42.07-57.61-39-60.32-60.91-4-31.93,60-58.22,53.25-78-2.38-7-10.33-3.74-45.24-16.1-26.27-9.31-35.8-16.11-50.43-12.08V532.22c6.83,2.6,7.44-.28,51.37,8.17,39.32,7.57,51.36,12.28,60.8,4C1890.53,534.64,1889.24,514.36,1888.3,499.62Z"/><path class="cls-10" d="M1923.18,547.44c-9.77-11.49-21.34-9.25-62.68-12.08-55.13-3.78-61.74-6.07-93.32-4.09V662.7c11.76,0,25-.29,30.22-1.32,54.54-10.77,54.72-1.34,76.29-10.76,11.91-5.2,49.86-21.77,57.5-57.88C1931.89,589.43,1937,563.69,1923.18,547.44Z"/><path class="cls-6" d="M1850.6,244.05c-2.94-6.75-10.83-8.69-22.27-11.33-20.62-4.75-42.9-9.88-61.15,5.67v75.5c8.18-2.26,5.28-17.14,14.14-25.3,11.64-10.7,27.16,5.24,46.3-3.39C1844,277.83,1855.72,255.8,1850.6,244.05Z"/></g><path class="cls-14" d="M2115.75.76c-30-3.94-63.17,7.61-75,34.69L1767.18,661.53h23.11L2063.86,35.45C2072.68,15.26,2093.35,3.7,2115.75.76Z"/><g class="cls-19"><rect class="cls-4" x="286.83" y="110.34" width="982.85" height="552.03"/><path class="cls-5" d="M603.57,368c-21.82,10-20.31,21.47-34.55,74.75-17.5,65.48-25.37,69.07-17.92,87.69,10.62,26.53,36.69,44.5,65.1,64.09,30,20.7,52.26,36,89.75,45.17,46.49,11.34,63.33.22,161.25.72,99.69.5,137.12,12.29,162.53-2.88,13.16-7.87,4-11.56,21.75-47.44,15.79-31.88,29.71-42.45,19.2-52.47-10.67-10.16-37.79-11.47-56.31-12.22-193.27-7.86-248-7.3-264.91-23.72-7.53-7.33-2.46-20,7.68-45.28,14-35,32.24-40.83,25.72-56.53-11-26.5-74.29-37.49-79.47-38.35C692.27,359.71,639,351.81,603.57,368Z"/><path class="cls-6" d="M993.93,611c26.54,18.41,120.13,8,174-18.69,43.79-21.71,52.26-49.69,64-88.41,5.3-17.49-14.42-26.57,4.44-70.06,6.24-14.37,33.28-52.47-22.39-76.47-3.85-1.66-61.7-21.7-107.46-47.55-26.64-15-39.81-22.47-56.31-34.5-18.78-13.68-28.17-20.52-33.94-29.68-12.9-20.48,3-27.77-4.45-52.26-3.18-10.44-9.45-31.06-39.68-45.28-23.81-11.21-61-17.75-96-11.5-46.66,8.33-64.54,35-66.54,38.09C779,222.52,867.41,280.82,914.58,311.93c108.94,71.85,164.19,61.49,188.13,100.63C1151.59,492.48,947.77,578.92,993.93,611Z"/><path class="cls-7" d="M1152.58,200.91c-3.91-7.33-109.31,12-230.35,16.17-206.19,7.06-260-36.8-376.25-8.63-94.35,22.87-145.67,72.77-165.09,91.65-47.56,46.24-54.29,88.23-55.67,99.19-6.9,55.18,22.88,116.34,49.91,116.45,38.39.14,15.23-123,149.73-171.43,50.5-18.18,130.29-28.36,182.37-9.71,81.28,29.12,30.79,105.46,92.14,121.84,72.64,19.39,253-58.38,249.55-128.31-1.45-29.05-34-43-19.19-69C1052.66,218.72,1156.38,208,1152.58,200.91Z"/><path class="cls-8" d="M340.58,170.72c-3.49,8.14,40.67-20.8,84.62,22.64,38.22,37.76,25.14,40.19,0,44.21-34.58,5.52-44.61-25-84.62-19.41-27.27,3.84-40.45,48.24-17.28,83,2.51,3.76,31.22,44.92,101.74,56.06,89,14.06,182.3-29.45,216.92-74.39,6.16-8,37.32-68.47-1.92-110C569.32,98.07,346,158,340.58,170.72Z"/><path class="cls-8" d="M308.11,557.07c18.24-46.55,103.2-42.39,164.44-95.6,65.36-56.78,8.09-95.8,75.51-131.54,54.87-29.09,143.9-30.33,203.48-20.85C799.32,316.69,827.19,331,878.23,358c94.41,49.81,150.7,79.5,142.06,117.16C1008.6,526,882.44,573.49,806.57,554.91c-49.07-12-75.13-51.17-75.51-81.22-.47-37.64,39.44-54.13,20.48-74.76-17.29-18.81-72-28.51-108.78-20.12-70.34,16-59.33,94.68-57.59,107.1,3.08,21.95,8.66,61.83,60.15,89.84,53,28.87,119.38,25.86,126.7,48.88,5,15.75-21.33,30.5-24.32,30.91-50.07,6.83-77-1.37-127.17-5.75C398,630.36,373,651.51,340.74,629.66,313.67,611.31,298,583,308.11,557.07Z"/><path class="cls-9" d="M1018.67,662.37c.24-11.48-3.08-20.72-11.69-29.46-36.69-37.25-117-14.42-396.11-41.43-42-4.06-89.83-9.39-124.4,6.2-36.36,16.39-38.65,47.17-37.39,64.69Z"/><path class="cls-10" d="M1269.68,662.37c-3.51-7.81-27-57-72-59.84-41.64-2.58-60.46,37.22-101.74,35.58-55.27-2.2-79.12-75.87-99.82-73.32-7.81,1-9,12-11.52,85.18a37.56,37.56,0,0,0,1.64,12.4Z"/><path class="cls-9" d="M286.83,110.34v.17c79.78,33.48,195.78,43.4,222.68,22.65,4.32-3.34,4.64-6.16,1-22.82Z"/><path class="cls-9" d="M449.08,110.34c.24,3.46.63,6.41.92,8.63,7.83,59.4,80.28,99.39,120.94,121.83,58.9,32.51,145.7,80.42,243.79,69,67.32-7.83,109.58-40.08,130.53-56.06,41.38-31.57,51.64-63.13,59.51-87.33s13.61-41.9,13.9-56.07Z"/><path class="cls-10" d="M986.25,110.34c8.35,27,45.53,39.84,49.23,51.21,9.9,30.36-9.79,65.74-1,73.86,25.94,23.83,57-66.38,109.74-71.88,39.7-4.14,125.42-53.19,125.42-53.19Z"/><path class="cls-10" d="M571.9,650a37.56,37.56,0,0,1-1.64,12.4H286.83c3.51-7.81,203.54-114.7,201.56-89.32-1.92,24.63-32.1,64,9.18,62.36"/><path class="cls-10" d="M286.83,110.34s101.55,96.08,141.71,93.8c44-2.5,24.17-31,48.33-51.75,15.45-13.28,85-15,93.39-42Z"/><path class="cls-6" d="M1269.68,359.4h0c-23.24,10.41-25.42,26.54-25.92,30.19-.67,5-1.87,13.86,8.64,19.68,1.27.7,9.38,5.18,17.28,4h0Z"/><path class="cls-10" d="M1269.68,568.53h0c-32.44,1.07-61.1,10.14-60.15,13.33,1.16,3.92,47.14,1.72,48,5.4.72,3.09-32.12,3.78-59.51,16.89-21,10-39.09,27.52-30.07,35.94s36.12-1.24,71.66,10.42c14.25,4.67,12.23,11.86,30.08,11.86h0Z"/><path class="cls-9" d="M1269.68,386.35h0c-5.86.85-15.28,2.8-28.8,9.71-39,20-49.52,49.3-51.19,54.27-14.67,43.81,13.42,103.39,77.39,118.3,1,.23,1.81.41,2.6.57Z"/><path class="cls-10" d="M1269.68,110.34c-17.85,0-15.83,7.19-30.08,11.86-35.54,11.66-62.95,1.82-71.66,10.42-21.12,20.85-36.47,30.91-2,64.54,2.88,2.81,71.26,6,103.7,7h0V110.34Z"/><path class="cls-9" d="M1269.68,203.51c-.79.16-83.8-17.16-120.32-3.92-49.48,17.93-36.07,81.77-21.4,125.58,1.67,5,73.89,31.52,112.92,51.48,13.52,6.91,22.94,8.86,28.8,9.7h0Z"/><path class="cls-10" d="M509.51,160.3c-10.37-25.79-61.9-37.62-78.07-41.33-29.28-6.73-29.54,0-103.58-7.69-7-.73-25.07-.94-41-.94v93.84c42.88,1.42,51.86-.21,126.7-2.91,56.12-2,71.84-.42,85.1-8.63C517.37,181,510.46,162.66,509.51,160.3Z"/><path class="cls-9" d="M439.12,194.8c-12.81-5.9-29.16-2.53-82.54,2.87-59.65,6-60.47,4-69.75,5.84V386.35c19.87,2.88,32.8-2,68.47-8.62,47.4-8.83,58.2-6.52,61.43-11.5,9.17-14.14-77.68-32.91-72.31-55.71,3.69-15.64,46.14-13.45,81.9-43.48,6.76-5.68,22.55-20.29,25-40.26C452.55,216.26,454.3,201.78,439.12,194.8Z"/><path class="cls-9" d="M451.28,545.92c-2.41-20-18.2-34.57-25-40.25-35.76-30-78.21-27.84-81.9-43.48-5.37-22.81,81.48-41.58,72.31-55.71-3.23-5-14-2.67-61.43-11.5-35.67-6.64-48.6-11.5-68.47-8.63V569.2c9.28,1.85,10.1-.2,69.75,5.84,53.38,5.4,69.73,8.77,82.54,2.87C454.3,570.93,452.55,556.45,451.28,545.92Z"/><path class="cls-10" d="M498.63,580.07c-13.26-8.21-29-6.6-85.1-8.63-74.84-2.7-83.82-4.33-126.7-2.91v93.84c16,0,34-.21,41-1,74-7.69,74.3-.95,103.58-7.68,16.17-3.71,67.7-15.54,78.07-41.33C510.46,610.05,517.37,591.67,498.63,580.07Z"/><path class="cls-6" d="M400.09,363.44c-4-4.82-14.71-6.2-30.23-8.08-28-3.39-58.25-7.06-83,4v53.91c11.11-1.61,7.16-12.24,19.2-18.06,15.79-7.65,36.88,3.74,62.87-2.43C391.07,387.56,407.05,371.84,400.09,363.44Z"/></g><path class="cls-11" d="M623.93,434.92c78.85,1.84,87.9-22,125.57-20.18s16.72,14.56,97.15,17.43c68.22,2.44,85.41-11.8,144.79-24L830.54,214.5c-28-33.75-144.24-33.75-172.28,0L498.09,407.27C537.39,413.67,554.31,433.3,623.93,434.92Z"/><path class="cls-12" d="M623.67,425.26c78.85,1.84,87.9-22,125.57-20.18s16.72,14.56,97.15,17.43c65.63,2.35,84-10.74,138.19-22.62l-154-185.39c-28-33.75-144.24-33.75-172.28,0L505,399C539.46,406.4,558.42,423.74,623.67,425.26Z"/><path class="cls-13" d="M830.54,214.5c-19.18-23.09-79.62-30.38-124.87-21.87,20.89,3.92,38.55,11.21,47.41,21.87l371.43,447H1202Z"/><path class="cls-14" d="M760.09,189.73c-40.78-2.81-85.77,5.44-101.83,24.77l-371.43,447h31.38l371.43-447C701.62,200.08,729.68,191.83,760.09,189.73Z"/><g class="cls-20"><rect class="cls-4" x="1114.38" y="-0.63" width="904.3" height="663.16"/><path class="cls-5" d="M1405.81,308.93c-20.08,12-18.69,25.8-31.79,89.81-16.11,78.66-23.35,83-16.49,105.35,9.77,31.86,33.76,53.46,59.9,77,27.64,24.88,48.08,43.28,82.58,54.27,42.77,13.62,58.26.27,148.36.86,91.72.6,126.16,14.77,149.54-3.45,12.11-9.45,3.67-13.89,20-57,14.53-38.31,27.34-51,17.67-63-9.82-12.21-34.77-13.77-51.81-14.68-177.83-9.45-228.22-8.77-243.74-28.49-6.93-8.81-2.27-24,7.06-54.41,12.9-42,29.67-49,23.67-67.91-10.11-31.82-68.35-45-73.12-46.07C1487.42,299,1438.45,289.46,1405.81,308.93Z"/><path class="cls-6" d="M1765,600.76c24.42,22.12,110.53,9.67,160.14-22.45,40.28-26.08,48.08-59.69,58.87-106.21,4.87-21-13.27-31.91,4.09-84.16,5.73-17.26,30.61-63-20.61-91.86-3.53-2-56.76-26.07-98.87-57.12-24.51-18.08-36.63-27-51.81-41.45-17.28-16.44-25.91-24.65-31.22-35.65-11.88-24.61,2.75-33.37-4.1-62.79-2.93-12.54-8.7-37.31-36.51-54.4-21.91-13.47-56.12-21.32-88.31-13.82-42.93,10-59.38,42-61.23,45.77-28.18,57.52,53.15,127.55,96.56,164.93,100.23,86.31,151.06,73.87,173.09,120.89C1910,458.44,1722.5,562.29,1765,600.76Z"/><path class="cls-7" d="M1910.94,108.17c-3.59-8.8-100.57,14.45-211.94,19.43-189.71,8.48-239.2-44.21-346.18-10.36-86.81,27.46-134,87.41-151.89,110.09-43.76,55.56-50,106-51.22,119.17-6.36,66.28,21,139.76,45.92,139.88,35.32.18,14-147.78,137.76-205.94,46.46-21.84,119.87-34.07,167.79-11.66,74.79,35,28.34,126.69,84.78,146.36,66.83,23.3,232.81-70.12,229.61-154.13-1.33-34.9-31.24-51.66-17.66-82.89C1819,129.57,1914.44,116.73,1910.94,108.17Z"/><path class="cls-8" d="M1163.84,71.91c-3.22,9.77,37.41-25,77.86,27.2,35.15,45.36,23.13,48.28,0,53.1-31.83,6.64-41-30.09-77.86-23.31-25.1,4.61-37.22,57.95-15.9,99.73,2.31,4.52,28.72,54,93.61,67.35,81.85,16.89,167.72-35.38,199.58-89.37,5.67-9.6,34.33-82.26-1.76-132.11C1374.3-15.37,1168.85,56.65,1163.84,71.91Z"/><path class="cls-8" d="M1134,536c16.78-55.92,95-50.91,151.3-114.84,60.13-68.21,7.44-115.09,69.47-158,50.49-34.94,132.41-36.43,187.22-25,44,9.13,69.6,26.36,116.57,58.72,86.86,59.83,138.65,95.5,130.7,140.75-10.75,61.14-126.83,118.16-196.64,95.84-45.14-14.43-69.12-61.47-69.47-97.57-.43-45.22,36.29-65,18.84-89.8-15.91-22.6-66.24-34.26-100.08-24.18-64.72,19.27-54.59,113.74-53,128.66,2.83,26.38,8,74.28,55.34,107.94,48.81,34.67,109.84,31.06,116.57,58.71,4.61,18.92-19.62,36.64-22.37,37.13-46.07,8.21-70.88-1.65-117-6.9-204.75-23.34-227.79,2.06-257.43-24.18C1139.08,601.19,1124.61,567.16,1134,536Z"/><path class="cls-9" d="M1787.74,662.54c.21-13.79-2.84-24.9-10.76-35.39-33.76-44.75-107.65-17.33-364.46-49.78-38.61-4.88-82.64-11.27-114.45,7.45-33.46,19.69-35.57,56.67-34.41,77.72Z"/><path class="cls-10" d="M2018.68,662.54c-3.22-9.39-24.85-68.54-66.23-71.89-38.31-3.1-55.63,44.72-93.61,42.74-50.86-2.64-72.8-91.14-91.84-88.07-7.19,1.15-8.24,14.44-10.6,102.32a57.82,57.82,0,0,0,1.51,14.9Z"/><path class="cls-9" d="M1114.38-.63v.21c73.41,40.22,180.13,52.13,204.88,27.2,4-4,4.27-7.39.94-27.41Z"/><path class="cls-9" d="M1263.66-.63c.23,4.16.58,7.71.85,10.36,7.2,71.36,73.87,119.41,111.27,146.37,54.2,39.06,134.06,96.61,224.31,82.89,61.94-9.41,100.83-48.15,120.1-67.35,38.08-37.93,47.52-75.84,54.76-104.92s12.52-50.32,12.79-67.35Z"/><path class="cls-10" d="M1757.91-.63c7.68,32.43,41.89,47.87,45.3,61.53,9.1,36.46-9,79-.89,88.72,23.87,28.63,52.48-79.74,101-86.35,36.52-5,115.39-63.9,115.39-63.9Z"/><path class="cls-10" d="M1376.66,647.64a57.39,57.39,0,0,1-1.5,14.9H1114.38c3.23-9.39,187.28-137.8,185.45-107.3-1.76,29.58-29.53,76.89,8.45,74.92"/><path class="cls-10" d="M1114.38-.63s93.43,115.43,130.39,112.69c40.44-3,22.24-37.22,44.47-62.17,14.21-16,78.23-18.09,85.92-50.52Z"/><path class="cls-10" d="M2018.68-.63c-16.42,0-14.56,8.64-27.67,14.25-32.7,14-57.92,2.18-65.94,12.52-19.42,25-33.55,37.13-1.8,77.53,2.65,3.37,65.57,7.15,95.41,8.44h0V-.63Z"/><path class="cls-9" d="M2018.68,111.3c-.73.19-77.1-20.61-110.7-4.71-45.53,21.53-33.19,98.23-19.68,150.86,1.53,6,68,37.87,103.89,61.85,12.43,8.3,21.11,10.64,26.49,11.65h0Z"/><path class="cls-10" d="M1319.26,59.38c-9.54-31-57-45.19-71.82-49.65-27-8.08-27.18,0-95.31-9.23-6.48-.87-23.07-1.13-37.75-1.13V112.11c39.45,1.7,47.71-.26,116.57-3.51,51.64-2.43,66.11-.5,78.3-10.36C1326.5,84.31,1320.14,62.23,1319.26,59.38Z"/><path class="cls-9" d="M1254.5,100.83c-11.79-7.08-26.83-3-76,3.46-54.87,7.25-55.63,4.78-64.17,7V331c18.28,3.45,30.18-2.38,63-10.36,43.61-10.6,53.54-7.83,56.52-13.81,8.43-17-71.47-39.53-66.53-66.92,3.39-18.8,42.45-16.16,75.36-52.25,6.21-6.81,20.74-24.36,23-48.35C1266.86,126.61,1268.47,109.22,1254.5,100.83Z"/><path class="cls-9" d="M1265.69,522.65c-2.22-24-16.75-41.54-23-48.36-32.91-36.08-72-33.44-75.36-52.24-4.94-27.39,75-49.94,66.53-66.92-3-6-12.91-3.21-56.52-13.81-32.82-8-44.72-13.82-63-10.37V550.61c8.54,2.23,9.3-.24,64.17,7,49.12,6.49,64.16,10.54,76,3.46C1268.47,552.69,1266.86,535.29,1265.69,522.65Z"/><path class="cls-10" d="M1309.25,563.67c-12.19-9.86-26.66-7.93-78.3-10.37-68.86-3.24-77.12-5.2-116.57-3.5V662.54c14.68,0,31.27-.26,37.75-1.14,68.13-9.24,68.36-1.15,95.31-9.23,14.87-4.46,62.28-18.67,71.82-49.65C1320.14,599.68,1326.5,577.6,1309.25,563.67Z"/><path class="cls-6" d="M1218.59,303.43c-3.68-5.79-13.54-7.45-27.82-9.71-25.75-4.08-53.59-8.48-76.39,4.85v64.77c10.22-1.94,6.59-14.7,17.66-21.7,14.54-9.18,33.93,4.5,57.85-2.91C1210.29,332.4,1225,313.51,1218.59,303.43Z"/></g><path class="cls-11" d="M1424.54,389.3c72.55,2.2,80.88-26.45,115.53-24.25s15.39,17.5,89.39,20.95c62.77,2.93,78.59-14.19,133.22-28.86l-148-232.64c-25.8-40.54-132.71-40.54-158.51,0L1308.76,356.08C1344.91,363.76,1360.49,387.35,1424.54,389.3Z"/><path class="cls-12" d="M1424.3,377.7c72.55,2.2,80.88-26.46,115.53-24.25s15.39,17.49,89.39,20.94c60.38,2.82,77.32-12.91,127.15-27.17L1614.64,124.5c-25.8-40.54-132.71-40.54-158.51,0l-141,221.6C1346.83,355,1364.27,375.87,1424.3,377.7Z"/><path class="cls-13" d="M1614.64,124.5C1597,96.77,1541.38,88,1499.75,98.22c19.22,4.72,35.47,13.48,43.62,26.28l341.74,537h71.28Z"/><path class="cls-14" d="M1549.82,94.75c-37.52-3.39-78.91,6.53-93.69,29.75l-341.75,537h28.87L1485,124.5C1496,107.18,1521.84,97.27,1549.82,94.75Z"/><g class="cls-21"><rect class="cls-4" x="-152.92" y="-110.43" width="723.89" height="773.13"/><path class="cls-5" d="M80.37,250.47c-16.07,14-15,30.07-25.45,104.69C42,446.87,36.23,451.9,41.72,478c7.82,37.15,27,62.32,48,89.75,22.12,29,38.49,50.46,66.1,63.26,34.24,15.88,46.64.32,118.76,1,73.43.7,101,17.22,119.71-4,9.7-11,2.94-16.19,16-66.44,11.63-44.65,21.89-59.46,14.14-73.49-7.85-14.23-27.83-16.05-41.47-17.11-142.35-11-182.69-10.23-195.11-33.22-5.55-10.27-1.82-28,5.65-63.42,10.33-49,23.75-57.18,18.95-79.17-8.09-37.11-54.72-52.51-58.53-53.71C145.7,238.82,106.49,227.76,80.37,250.47Z"/><path class="cls-6" d="M367.88,590.68c19.54,25.79,88.47,11.28,128.18-26.17,32.25-30.41,38.49-69.59,47.13-123.82,3.9-24.49-10.62-37.21,3.27-98.11,4.6-20.13,24.51-73.49-16.49-107.1-2.83-2.33-45.44-30.4-79.15-66.6-19.62-21.07-29.32-31.48-41.47-48.32-13.83-19.16-20.75-28.74-25-41.56-9.5-28.69,2.21-38.9-3.28-73.2-2.34-14.62-7-43.5-29.22-63.42-17.54-15.7-44.92-24.86-70.69-16.11-34.37,11.67-47.54,49-49,53.36-22.56,67.06,42.54,148.7,77.29,192.27C389.67,272.52,430.36,258,448,312.84,484,424.77,333.87,545.83,367.88,590.68Z"/><path class="cls-7" d="M484.73,16.41c-2.88-10.26-80.52,16.85-169.67,22.65C163.21,48.94,123.58-12.48,38,27-31.54,59-69.34,128.89-83.64,155.33c-35,64.77-40,123.57-41,138.93-5.09,77.27,16.85,162.94,36.76,163.08,28.27.2,11.21-172.29,110.28-240.1,37.19-25.45,95.95-39.71,134.31-13.59,59.87,40.79,22.68,147.7,67.87,170.64,53.5,27.15,186.36-81.76,183.8-179.7-1.07-40.68-25-60.22-14.14-96.64C411.13,41.35,487.53,26.39,484.73,16.41Z"/><path class="cls-8" d="M-113.33-25.87C-115.9-14.47-83.38-55-51,5.84c28.14,52.89,18.51,56.29,0,61.91-25.48,7.74-32.86-35.08-62.33-27.18-20.09,5.39-29.79,67.56-12.73,116.27,1.85,5.28,23,62.91,74.94,78.53,65.52,19.69,134.26-41.26,159.76-104.2,4.54-11.19,27.49-95.89-1.41-154C55.14-127.62-109.32-43.65-113.33-25.87Z"/><path class="cls-8" d="M-137.25,515.22c13.44-65.19,76-59.36,121.12-133.89,48.13-79.52,6-134.17,55.61-184.22,40.42-40.74,106-42.47,149.87-29.19,35.19,10.65,55.71,30.73,93.31,68.45,69.54,69.76,111,111.35,104.63,164.09-8.61,71.29-101.53,137.77-157.41,111.74-36.14-16.83-55.33-71.67-55.61-113.75-.35-52.72,29-75.81,15.08-104.7-12.74-26.34-53-39.93-80.12-28.18-51.81,22.47-43.7,132.6-42.41,150,2.26,30.75,6.37,86.6,44.3,125.84,39.07,40.42,87.92,36.21,93.31,68.45,3.69,22-15.71,42.72-17.91,43.29-36.88,9.56-56.74-1.92-93.67-8C-71,617.88-89.49,647.49-113.21,616.9-133.15,591.19-144.73,551.51-137.25,515.22Z"/><path class="cls-9" d="M386.1,662.7c.17-16.07-2.27-29-8.61-41.26-27-52.16-86.17-20.19-291.75-58-30.91-5.69-66.16-13.15-91.62,8.68-26.78,23-28.47,66.07-27.54,90.6Z"/><path class="cls-10" d="M571,662.7c-2.58-10.93-19.9-79.9-53-83.8C487.28,575.28,473.42,631,443,628.73c-40.71-3.08-58.28-106.26-73.52-102.68-5.76,1.34-6.59,16.84-8.49,119.29a97.45,97.45,0,0,0,1.21,17.36Z"/><path class="cls-9" d="M-33.42-110.43c.18,4.85.46,9,.68,12.08C-27-15.16,26.39,40.85,56.33,72.28c43.39,45.54,107.31,112.64,179.56,96.64C285.47,158,316.6,112.79,332,90.4c30.48-44.21,38-88.41,43.83-122.31s10-58.67,10.24-78.52Z"/><path class="cls-10" d="M362.22-110.43c6.15,37.81,33.53,55.8,36.26,71.73,7.29,42.51-7.21,92.06-.71,103.43,19.11,33.38,42-93,80.83-100.67,29.24-5.8,92.37-74.49,92.37-74.49Z"/><path class="cls-10" d="M57,645.34a96.53,96.53,0,0,1-1.21,17.36H-152.92C-150.34,651.77-3,502.06-4.47,537.61-5.88,572.1-28.11,627.25,2.3,625"/><path class="cls-10" d="M-152.92-110.43S-78.13,24.14-48.54,20.94c32.37-3.5,17.79-43.39,35.59-72.48,11.38-18.6,62.63-21.08,68.78-58.89Z"/><path class="cls-6" d="M571,238.39h0c-17.12,14.58-18.72,37.17-19.09,42.28-.49,6.92-1.38,19.41,6.37,27.55.93,1,6.9,7.27,12.72,5.67h0Z"/><path class="cls-10" d="M571,531.27h0c-23.89,1.51-45,14.2-44.3,18.68.85,5.48,34.72,2.4,35.35,7.55.52,4.34-23.66,5.31-43.83,23.66C502.73,595.23,489.4,619.71,496,631.5s26.6-1.74,52.78,14.59c10.49,6.55,9,16.61,22.15,16.61h0Z"/><path class="cls-9" d="M571,276.14h0c-4.31,1.18-11.25,3.91-21.21,13.59-28.75,27.95-36.47,69-37.7,76-10.81,61.36,9.88,144.81,57,165.69.7.32,1.33.57,1.91.8Z"/><path class="cls-10" d="M571-110.43c-13.15,0-11.66,10.06-22.15,16.61-26.18,16.33-46.36,2.55-52.78,14.6C480.49-50,469.17-35.94,494.59,11.16,496.72,15.09,547.08,19.5,571,21h0V-110.43Z"/><path class="cls-9" d="M571,20.06c-.58.22-61.72-24-88.62-5.5-36.44,25.11-26.56,114.52-15.75,175.88,1.22,7,54.41,44.15,83.16,72.11,10,9.67,16.9,12.4,21.21,13.59h0Z"/><path class="cls-10" d="M11.09-40.47C3.45-76.58-34.5-93.15-46.41-98.35c-21.57-9.42-21.76,0-76.29-10.76-5.19-1-18.47-1.32-30.22-1.32V21c31.58,2,38.19-.3,93.31-4.09,41.34-2.83,52.92-.59,62.69-12.08C16.88-11.41,11.79-37.16,11.09-40.47Z"/><path class="cls-10" d="M3.08,547.44c-9.77-11.49-21.35-9.25-62.69-12.08-55.12-3.78-61.73-6.07-93.31-4.09V662.7c11.75,0,25-.29,30.22-1.32C-68.17,650.61-68,660-46.41,650.62c11.91-5.2,49.86-21.77,57.5-57.88C11.79,589.43,16.88,563.69,3.08,547.44Z"/></g><path class="cls-11" d="M95.36,344.16c58.08,2.57,64.74-30.84,92.48-28.27s12.32,20.39,71.56,24.42c50.25,3.41,62.91-16.54,106.64-33.65L247.54,35.45c-20.66-47.27-106.24-47.27-126.89,0l-118,270C31.62,314.39,44.09,341.89,95.36,344.16Z"/><path class="cls-12" d="M95.17,330.63c58.07,2.57,64.74-30.84,92.48-28.27s12.32,20.39,71.56,24.42c48.33,3.28,61.89-15,101.78-31.69L247.54,35.45c-20.66-47.27-106.24-47.27-126.89,0L7.76,293.8C33.15,304.21,47.12,328.5,95.17,330.63Z"/><path class="cls-13" d="M247.54,35.45c-14.13-32.34-58.65-42.54-92-30.64C171,10.31,184,20.52,190.48,35.45L464.05,661.53H521.1Z"/><path class="cls-14" d="M195.65.76c-30-3.94-63.17,7.61-75,34.69L-152.92,661.53h23.11L143.76,35.45C152.58,15.26,173.25,3.7,195.65.76Z"/></g></g></g></svg>